<svg width="113" height="113" viewBox="0 0 113 113" fill="none" xmlns="http://www.w3.org/2000/svg">
<path d="M37.5569 108.806C45.1114 107.268 52.0305 108.84 59.0436 105.734C53.371 101.709 47.3132 100.693 42.4519 96.4798C35.7086 90.6256 30.8779 83.453 31.7239 72.4541C31.8087 71.3626 31.3918 69.7167 32.4636 69.3864C33.1512 69.1734 34.1566 70.0607 34.9014 70.672C41.0123 75.6843 44.9664 75.4764 50.1873 69.7898C53.8032 65.8512 54.3703 55.9677 51.2397 51.4418C42.6246 38.9835 24.8109 38.5978 15.5818 50.5142C10.7705 56.7277 8.55745 64.1069 8.31939 72.5209C8.22437 75.8633 8.30304 79.212 8.30304 82.7044C1.96021 77.6883 -1.7711 62.2555 0.844499 48.0188C3.41718 34.0291 9.14902 22.2336 20.0773 15.3106C18.228 21.388 14.6704 26.4671 13.8939 34.1148C28.3972 21.4774 43.2754 15.6963 59.6403 27.9064C58.8484 29.7704 57.5795 29.2071 56.6405 29.5688C53.2321 30.8846 49.7643 32.1436 48.9613 37.2568C48.0693 42.9283 50.8576 46.7345 54.2487 49.1934C64.2962 56.4819 76.6754 53.7659 84.0828 41.0756C86.8517 36.333 85.9893 26.0777 83.2389 21.0288C78.303 11.9607 70.7933 7.52179 63.1785 3.21523C61.638 2.37038 60.1668 1.34524 58.7851 0.153885C68.4138 -0.704401 76.9134 2.11622 85.1209 6.40513C94.4686 11.2889 102.35 18.7564 108.283 28.9184C110.345 32.4474 111.444 36.8711 112.772 40.9886C113.025 41.7738 113.302 43.5093 112.196 44.1029C111.091 44.6965 110.428 43.3946 109.94 42.4809C107.87 38.5965 105.565 35.0147 102.446 32.3012C101.744 31.6912 100.998 30.935 100.265 31.5273C99.2972 32.3075 99.8377 33.4292 100.123 34.6C104.153 51.0927 97.1986 64.8404 84.9094 71.0085C82.2284 72.3545 81.1883 71.921 81.9372 67.8463C82.9589 62.2731 81.0044 58.1531 76.4312 56.8474C65.8227 53.8226 57.556 59.3592 54.1332 71.9991C53.1115 75.7864 57.2638 87.4684 62.731 91.078C72.8848 97.7792 83.1316 96.7684 93.4387 92.0107C97.5818 90.0975 101.597 87.7646 105.92 85.4922C99.1419 104.357 64.6334 121.07 37.5569 108.806Z" fill="white"/>
</svg>
